<svg id="Deafult_Theme" data-name="Deafult Theme" xmlns="http://www.w3.org/2000/svg" viewBox="0 0 1080 1080">
  <defs>
    <style>
      .cls-1 {
        fill: #0d0d0d;
      }

      .cls-2 {
        fill: #fff;
      }
    </style>
  </defs>
  <title>deafault-config</title>
  <rect class="cls-1" width="1080" height="1080"/>
  <path class="cls-2" d="M415.63,356c-1.47-18.58-2.81-35.71-4.19-52.85-.43-5.42,1-7.95,6.27-9.74q24-8.24,48.15-16.29c4.9-1.64,7.41-.68,10.4,3.63q15.4,22.16,30.77,44.35c2.74,4,6.14,6.08,11.14,5.65a149.58,149.58,0,0,1,15-.56c3.78.06,6.17-1.66,7.82-4.75q12.85-23.91,25.65-47.85c3.11-5.84,5.22-6.86,11.79-5.27,16.48,4,33,7.91,49.41,12,5.23,1.28,6.79,3.39,7,8.86.7,18.1,1.44,36.2,2,54.31.14,4.4,1.92,7.52,5.72,9.61s7.37,4,10.9,6.18c4.09,2.58,8,2.49,12.13.17q23.56-13.16,47.2-26.14c4.85-2.67,7.55-2.1,11.43,1.88q18.24,18.72,36.51,37.39c3.07,3.13,3.49,6.23,1.23,10-8.94,15.07-17.79,30.2-26.9,45.17-3,5-3.52,9.61-.45,14.67,2.11,3.46,3.82,7.17,5.86,10.68a11.34,11.34,0,0,0,9.78,6.2c17.86,1,35.7,2.26,53.55,3.45,6.42.43,8.34,2.16,9.68,8.34q5.32,24.67,10.73,49.32c.94,4.28-.19,7.18-4.21,9.24-10.75,5.51-21.57,10.88-32.35,16.3-5.71,2.87-11.42,5.72-17.11,8.62a9.23,9.23,0,0,0-5.41,8c-.43,6.26-.85,12.52-1.19,18.78a10,10,0,0,0,4.49,8.94q14.28,10.56,28.57,21.08c5.33,3.92,10.7,7.78,16,11.77,4.18,3.17,4.84,5.9,3,11q-8.4,23.24-16.81,46.46c-1.71,4.73-4.46,6.38-9.72,5.81-17.43-1.89-34.87-3.73-52.29-5.71-4.76-.55-8.28.9-11,4.89-3.63,5.25-7.49,10.34-11.35,15.43A11.89,11.89,0,0,0,713,717.35c6.49,16.77,12.8,33.6,19.22,50.4,1.87,4.88,1.35,7.52-2.7,10.64q-19.05,14.67-38.16,29.22c-4.19,3.18-7.06,3.21-11.34-.18-11-8.74-21.86-17.64-32.79-26.47-3.07-2.48-6.13-5-9.26-7.39a8.79,8.79,0,0,0-8.83-1.61c-8.59,3.18-17.21,6.3-25.73,9.67-3.46,1.37-5.28,4.3-6,8q-5.37,26.26-10.87,52.5c-1.2,5.76-3,7.56-8.82,8-15.26,1.27-30.54,2.46-45.83,3.45-5.22.34-7.58-1.56-9.27-6.63q-8.44-25.26-16.75-50.56a10.41,10.41,0,0,0-8-7.46c-9-2.07-18.12-4-27.19-6a10.24,10.24,0,0,0-10.09,3.18q-18.49,18.95-37.16,37.72c-5,5-6.61,5.07-12.79,1.59q-19.56-11-39.14-22c-3.64-2.05-5-4.94-3.94-9,4.4-17.44,8.76-34.89,13.32-52.29,1.22-4.64.38-8.43-2.91-11.82-6.38-6.58-12.71-13.21-19.09-19.79a9.91,9.91,0,0,0-9.88-2.87l-52,11.72c-5.82,1.31-8,.31-10.7-4.86q-10.29-19.95-20.59-39.9c-2.8-5.4-2.51-7.83,1.93-12,12.8-12,25.59-24,38.52-35.79,3.91-3.59,5.29-7.53,4.13-12.76-1.55-7-2.88-14.11-3.86-21.23-.86-6.27-4-9.77-10-11.85-17.1-5.91-34-12.36-51.05-18.48-2.38-.86-3.23-2.09-3-4.56,1.29-12.93,2.45-25.88,3.74-38.82.4-4,1-8.06,1.61-12.08.74-5.09,2.65-7.14,7.61-8,10.86-2,21.72-3.85,32.58-5.81,7.19-1.29,14.36-2.74,21.56-4a10.41,10.41,0,0,0,8.27-6.64c3-6.93,5.86-13.9,8.75-20.87a9.39,9.39,0,0,0-1.21-9.85q-16.5-21.8-33-43.63c-2.63-3.49-2.78-6.49-.11-9.85Q308,378.49,324,358.73c2.65-3.28,5.91-3.91,10-2.21q24.93,10.29,49.83,20.66c4.82,2,9.12,1.83,13.38-1.45A124.44,124.44,0,0,1,409,367.62C414.05,364.57,416.6,360.55,415.63,356ZM533.4,391.65c-95.94.2-174.28,80.3-169.72,179,4.12,89.1,79.35,164.85,175.84,162,90.68-2.71,168.31-79.27,164.48-177.5C700.47,464.71,625.84,391.43,533.4,391.65Z"/>
</svg>
