<svg id="Deafult_Theme" data-name="Deafult Theme" xmlns="http://www.w3.org/2000/svg" viewBox="0 0 1080 1080">
  <defs>
    <style>
      .cls-1 {
        fill: #0d0d0d;
      }

      .cls-2 {
        fill: #fff;
      }
    </style>
  </defs>
  <title>deafault-power</title>
  <rect class="cls-1" width="1080" height="1080"/>
  <g>
    <path class="cls-2" d="M554.16,886.05C402.4,885.49,270,778.37,242,629.66c-21.76-115.76,11.77-215.41,96.8-297.21,19.37-18.63,43.71-19.9,62.89-4.64,21.59,17.18,22.56,50.65,1.93,69.19-39.94,35.91-65.1,80.29-73.56,133.24-10.9,68.22,6.09,129.57,50.26,182.71,36.69,44.15,84.1,70.79,140.87,78.94C643.12,809.39,751.3,729.42,775.56,617c18.53-85.85-6.64-159.12-70-219.45-25.84-24.59-18.26-65.66,14.72-77.24,18.21-6.39,34.37-1.9,48.44,11.05,38.47,35.4,66.92,77.56,84.88,126.63,44.18,120.68,11.05,256.86-83.91,343.6-51.28,46.84-111.54,74.56-180.82,82C577.31,884.79,565.72,885.24,554.16,886.05Z"/>
    <path class="cls-2" d="M599.69,362.48c0,38.37.18,76.74-.09,115.11-.14,20.65-14.8,38.38-34.69,43.07s-41.42-4.4-50.56-22.61a50.37,50.37,0,0,1-5.51-21.6c-.39-76-.28-152-.22-228.08,0-25,21-45.78,45.77-45.56,24.58.22,45,20,45.23,44.56C599.93,285.74,599.7,324.11,599.69,362.48Z"/>
  </g>
</svg>
