<svg id="Deafult_Theme" data-name="Deafult Theme" xmlns="http://www.w3.org/2000/svg" viewBox="0 0 1080 1080">
  <defs>
    <style>
      .cls-1 {
        fill: #0d0d0d;
      }

      .cls-2 {
        fill: #fff;
      }
    </style>
  </defs>
  <title>deafault-battery</title>
  <rect class="cls-1" width="1080" height="1080"/>
  <g>
    <path class="cls-2" d="M719.44,524.65c13.54-1.7,14.44,5.63,14.11,15.11-.54,15.85-.56,31.75,0,47.61.35,9.36-1,16-14.16,14.3,0,7.76.09,14.72,0,21.69-.3,19.31-11.71,30.65-31.3,30.93-11.89.17-23.79,0-35.69,0l-284.33,0c-23.86,0-34.75-10.84-34.78-34.85q-.07-58.32,0-116.66c0-20.46,11.11-31.81,31.29-31.82q161.79-.11,323.58,0c20.45,0,31.05,10.95,31.25,31.77C719.49,509.49,719.44,516.22,719.44,524.65ZM358,627.74H692.15v-130H358Z"/>
    <path class="cls-2" d="M437.24,505.38c17.48,0,33.7-.29,49.89.3,2.55.1,7.07,4.16,7.1,6.43.46,34.44.32,68.88.32,104.19H437.24Z"/>
    <path class="cls-2" d="M369.66,506h56V616.36h-56Z"/>
    <path class="cls-2" d="M561.06,616.57H505.45V506h55.61Z"/>
  </g>
</svg>
