<svg id="Deafult_Theme" data-name="Deafult Theme" xmlns="http://www.w3.org/2000/svg" viewBox="0 0 1080 1080">
  <defs>
    <style>
      .cls-1 {
        fill: #0d0d0d;
      }

      .cls-2 {
        fill: #fff;
      }

      .cls-3, .cls-4 {
        fill: none;
        stroke: #fff;
        stroke-miterlimit: 10;
      }

      .cls-4 {
        stroke-width: 19px;
      }
    </style>
  </defs>
  <title>deafault-fulltrash</title>
  <rect class="cls-1" width="1080" height="1080"/>
  <g>
    <g>
      <path class="cls-2" d="M467.32,194c16.3,7.76,32.35,16.08,49,22.88,4.54,1.85,11.52.41,16.4-1.75,24.21-10.67,48.53-19.53,75.59-12.65,2.69.69,5.38,1.45,8,2.4,26.24,9.48,27.82,13.06,17.54,38.7-11.75,29.33-23.43,58.68-34.79,87.13,102.74,61.58,141.29,158,149.06,270,3.15,45.45-7.33,88.54-46.34,118.78-23.93,18.55-52.23,26.75-81.58,30.28-58.15,7-116.46,8-174-4.86C375.69,729.05,340.47,681.64,342.64,605c2.34-82.83,29.44-157,83.22-220.49,11.95-14.11,26.64-25.89,37.84-36.6C451.4,315.31,439,283.32,427.42,251c-2.59-7.26-2.31-15.6-3.08-23.47-1.46-15.05,6-25.52,17.78-33.6ZM521,367.29l-3-3c-13.16,8.17-28,14.48-39.2,24.8-68.24,63-98.29,142.7-94.72,234.34,1.88,48.07,26.83,73.77,74.35,82.69a460.22,460.22,0,0,0,70.79,7.21c41,1.22,82.16,1.12,121.79-12.23,31.7-10.69,52-32.46,54.24-65.91C707.08,607.6,707.11,579,702,552c-11.55-61.19-37.79-115.84-84.32-159-13.89-12.88-29.55-23.06-47.31-27.52l19.1,49.2h-27.9L546.5,382.93l-4.92.39c-4.42,13-10.62,25.78-12.77,39.18-2.22,13.84-.49,28.32-.49,44.09l-22.55,7.57C492.67,434.89,501.11,400.32,521,367.29Zm69.58-124.6-2.46-3.51c-37.24,12.15-72.82,32.47-117.71,22.91,13.32,28.33,24.89,52.92,35.86,76.24,15.05-1.62,27.94-2.66,40.7-4.6,3.42-.52,8.18-3.05,9.36-5.88C568.14,299.61,579.29,271.11,590.62,242.69Z"/>
      <path class="cls-3" d="M521,367.29c-19.93,33-28.37,67.6-15.27,106.87l22.55-7.57c0-15.77-1.73-30.25.49-44.09,2.15-13.4,8.35-26.15,12.77-39.18l4.92-.39,15.07,31.75h27.9l-19.1-49.2c17.76,4.46,33.42,14.64,47.31,27.52,46.53,43.17,72.77,97.82,84.32,159,5.11,27,5.08,55.59,3.27,83.19-2.2,33.45-22.54,55.22-54.24,65.91-39.63,13.35-80.78,13.45-121.79,12.23a460.22,460.22,0,0,1-70.79-7.21c-47.52-8.92-72.47-34.62-74.35-82.69-3.57-91.64,26.48-171.3,94.72-234.34,11.17-10.32,26-16.63,39.2-24.8Z"/>
      <path class="cls-3" d="M590.62,242.69c-11.33,28.42-22.48,56.92-34.25,85.16-1.18,2.83-5.94,5.36-9.36,5.88-12.76,1.94-25.65,3-40.7,4.6-11-23.32-22.54-47.91-35.86-76.24,44.89,9.56,80.47-10.76,117.71-22.91Z"/>
    </g>
    <g>
      <polygon class="cls-4" points="698.86 834.49 355.13 834.49 265.46 342.03 825.75 342.03 698.86 834.49"/>
      <line class="cls-4" x1="793.17" y1="342.03" x2="355.13" y2="834.49"/>
      <line class="cls-4" x1="788.08" y1="482.15" x2="468.65" y2="834.49"/>
      <line class="cls-4" x1="744.25" y1="658.32" x2="583.87" y2="834.49"/>
      <line class="cls-4" x1="333.8" y1="717.34" x2="670.69" y2="342.03"/>
      <line class="cls-4" x1="313.67" y1="606.77" x2="544.3" y2="342.03"/>
      <line class="cls-4" x1="289.1" y1="479.15" x2="427.55" y2="342.03"/>
    </g>
  </g>
</svg>
