<svg id="Deafult_Theme" data-name="Deafult Theme" xmlns="http://www.w3.org/2000/svg" viewBox="0 0 1080 1080">
  <defs>
    <style>
      .cls-1 {
        fill: #0d0d0d;
      }

      .cls-2 {
        fill: #fff;
      }
    </style>
  </defs>
  <title>deafault-notifications</title>
  <rect class="cls-1" width="1080" height="1080"/>
  <g>
    <path class="cls-2" d="M437.42,303.43c-.69-42.71,21.91-68.57,56.94-68.45,34.7.13,60.89,26.81,58.51,64.63-4.18,66.49-11,132.81-16.8,199.2q-2.93,33.51-6.16,67c-.8,8.27-1.51,16.6-3.12,24.74-3.42,17.31-14.75,27.87-31.92,27.62-17.39-.25-28.57-11.85-30.76-28.95-3.91-30.49-6.47-61.15-9.27-91.77C448.83,431.71,443,366,437.42,303.43Z"/>
    <path class="cls-2" d="M548.87,740.37c.1,30.91-24.43,55.67-54.58,55.09C465,794.9,441.71,770.88,441.55,741c-.17-30.87,24.14-55.28,54.51-54.74C525.62,686.77,548.78,710.51,548.87,740.37Z"/>
  </g>
</svg>
