<svg id="Deafult_Theme" data-name="Deafult Theme" xmlns="http://www.w3.org/2000/svg" viewBox="0 0 1080 1080">
  <defs>
    <style>
      .cls-1 {
        fill: #0d0d0d;
      }

      .cls-2 {
        fill: #fff;
      }
    </style>
  </defs>
  <title>deafault-search</title>
  <rect class="cls-1" width="1080" height="1080"/>
  <path class="cls-2" d="M802.68,513.72c-16,85.3-89,149-175.72,153.38-43.27,2.16-82.74-9.67-118.14-34.66-3.74-2.64-5.88-2.58-9.13.71C476,657.16,452,681,428.13,704.85Q367,766,305.83,827.11c-8.68,8.67-19,10.62-29.21,5.89a27.34,27.34,0,0,1-16-26.91c.57-7.12,4.49-12.39,9.35-17.24q96.35-96.29,192.71-192.56c3.18-3.17,3.54-5.25.84-9.11C434.62,545.81,423.23,500,430.85,450,446.43,348,541,277.7,643.38,291.56c92.32,12.49,162.85,93.37,162.91,192.6C805.58,490.21,804.86,502.1,802.68,513.72ZM759,478.37c-.08-78.71-63.28-141.6-142.18-141.46-78.5.14-141.12,63.25-141,142S538.74,620.16,617.66,620A140.93,140.93,0,0,0,759,478.37Z"/>
</svg>
