<svg id="Deafult_Theme" data-name="Deafult Theme" xmlns="http://www.w3.org/2000/svg" viewBox="0 0 1080 1080">
  <defs>
    <style>
      .cls-1 {
        fill: #0d0d0d;
      }

      .cls-2 {
        fill: #fff;
      }
    </style>
  </defs>
  <title>deafault-home</title>
  <rect class="cls-1" width="1080" height="1080"/>
  <g>
    <path class="cls-2" d="M575.73,568.68s-2.37,16.75-12.46,26.11a22.13,22.13,0,0,1-14,6.15c-6.33.41-11.25-2.4-15-6.5-8.64-9.42-11.16-25.76-11.16-25.76Z"/>
    <g>
      <path class="cls-2" d="M508.27,357.44l-2.49.43q-7.48,1.35-14.8,3.19a226.54,226.54,0,0,0-27.06,8.59l-.34.13q-2.41.9-4.89,2a148.43,148.43,0,0,0-31.15,18.58c-14.77,11.31-26.36,24.06-33.38,35.77-1.78,2.42-.78,2.2-1.78,2.42-23.95,32.61-39.86,70.67-41.37,113.85-.06,1.38-.09,2.75-.1,4.13,0,1.11,0,2.22,0,3.34,0,4.44.15,8.86.42,13.24A41.92,41.92,0,0,1,337,586.57c0,.13-.07.26-.11.4q-2.22,1.74-4.49,3.77c-1.53,1.38-3.08,2.86-4.63,4.43l0,0c-3.09,2.71-6.33,5.64-9.65,8.77s-6.47,6.18-9.79,9.5c-6.85,6.84-13.1,13.52-18.44,19.63-1.47,1.4-2.92,2.79-4.35,4.19-51.68,50.08-82.4,99-69.75,112.89,6.31,6.93,22.29,4,43.51-6.57-.05.25-.09.5-.13.74h0c11.29-5.78,23.42-12.18,35.8-18.82l8.27-4.46c6.92-3.74,13.87-7.52,20.74-11.29l4.85-2.66L338,702l9-5c7.91-4.38,15.52-8.64,22.67-12.66l5.45-3.06.42-.24,1.2-.67.87-.49.87-.5,2.43-1.37.88-.49,2.33-1.32,4.51-2.55,2.17-1.23c4.57-2.59,8.74-5,12.44-7.08l1.85-1,5.64-3.22,2.11-1.21q-3.82-8.19-7.38-16.76-3.42-8.24-6.43-16.4c-3.65-9.92-6.84-19.74-9.57-29.36-3.28-11.54-5.91-22.81-7.87-33.65-.2-1.14-.4-2.27-.59-3.39-.09-.51-.17-1-.25-1.53l-.33-2-.21-1.4c-.12-.73-.23-1.47-.33-2.2-.06-.39-.12-.78-.17-1.16s-.09-.67-.14-1a1.26,1.26,0,0,0-.05-.38c-.07-.51-.15-1-.21-1.53-.33-5.19,1.54-17.41,1.54-17.41l-.16.11c.52-2.06,1-4.21,1.41-6.42.12-.66.24-1.32.35-2h0c.17-.13,2.73-8.79,2.89-9.33h0c.07-.15.13-.3.2-.44.53-1.21,1.06-2.4,1.62-3.58l.16-.36c.58-1.22,1.17-2.42,1.77-3.61l.38-.75c.58-1.14,1.18-2.28,1.79-3.4l.43-.77c.62-1.13,1.25-2.25,1.9-3.35l.33-.54c.61-1,1.24-2.07,1.88-3.09.11-.16.21-.33.31-.49q1-1.59,2.07-3.15l.5-.72c.69-1,1.39-2,2.11-3l.51-.69c.74-1,1.49-2,2.25-3l.34-.42c.72-.91,1.46-1.81,2.21-2.69l.42-.5c.79-.93,1.59-1.83,2.4-2.73l.58-.63c.81-.88,1.63-1.74,2.46-2.59l.55-.55c.88-.88,1.76-1.74,2.65-2.58l.26-.24c.86-.81,1.74-1.6,2.63-2.37l.48-.43c.92-.79,1.85-1.56,2.78-2.31l.6-.48c1-.75,1.91-1.49,2.88-2.21l.5-.37c1-.75,2.07-1.49,3.13-2.2h0a101.43,101.43,0,0,1,10.31-6.13c.76-.4,1.52-.78,2.29-1.16a105.22,105.22,0,0,1,11.48-4.77h0c2.77-1,5.57-1.81,8.43-2.53h0l2.4-.32a106.65,106.65,0,0,1,31.91.93,128.36,128.36,0,0,1,41.22,15.34q4.77,2.72,9.45,5.86a153.72,153.72,0,0,1,14.28-8.5,125.25,125.25,0,0,1,38.26-13,107.18,107.18,0,0,1,20.24-1.34h0c3.27.09,6.53.33,9.81.73A105.07,105.07,0,0,1,641,447.28a107.86,107.86,0,0,1,12.55,3.91h0q2.09,1,4.13,2a97.32,97.32,0,0,1,21.18,14.89,103.76,103.76,0,0,1,9.52,10c13.92,16.63,23.78,38.3,29.56,63.67q-.36,6-1.1,12.22-.6,5-1.42,10.16c-1,6-2.16,12.1-3.59,18.37v0q-.93,4-2,8.14a364,364,0,0,1-11.27,35.91c-3.89,10.52-8.34,21.21-13.35,31.95l1.86,1.15c4.49,2.75,10.05,6.14,16.4,10-.11.16-.22.3-.34.46l.82-.17,4.8,2.89q3.59,2.16,7.44,4.45l1.54.91,3.67,2.18,2.77,1.65L727,683.7l5,2.92,5.09,3c3.43,2,6.94,4,10.49,6.07l5.07,2.91,5.12,2.91q5.13,2.92,10.36,5.85c2.52,1.41,5.06,2.81,7.59,4.21l1.52.85q7.47,4.11,14.88,8.07l3.73,2c10.57,5.6,20.89,10.85,30.49,15.42h0a195.2,195.2,0,0,0,23.07,11.64c16.32,6.75,28.44,7.92,33.74,2.1,13.41-14.75-22-68.9-79.44-122.07q-1.86-1.72-3.75-3.44-2.22-2-4.43-4A228.82,228.82,0,0,0,776,600h0c-2.49-2.51-5.1-5.08-7.81-7.66-1-.93-1.95-1.85-2.92-2.75a23.43,23.43,0,0,0-1.29-2,46.25,46.25,0,0,0-3.59-4.4c-.8-.88-1.67-1.76-2.58-2.65s-1.77-1.67-2.65-2.42a42.64,42.64,0,0,1-4.84-7q-2.24-6.82-4.72-13.38c-.53-1.39-1.07-2.78-1.62-4.15h0c.09-2.51.14-5,.14-7.55a207.36,207.36,0,0,0-48.81-134q-5.57-6.62-11.66-12.76a228.73,228.73,0,0,0-80.86-38.28q-6-1.49-12-2.67h0q-2.64-.51-5.3-1"/>
      <path class="cls-2" d="M586.84,359.44c.35-17,9-34.64,24.66-44a59.38,59.38,0,0,0-26.76,0,57.47,57.47,0,0,0-35.27,23.84c-10.61-19.38-34.94-29.95-59.76-24.28-.39.09-.8.18-1.19.29a46.39,46.39,0,0,1,21.06,29c1.21,5.3-2.17,10.19-2.85,15.36"/>
    </g>
  </g>
</svg>
