<svg id="Deafult_Theme" data-name="Deafult Theme" xmlns="http://www.w3.org/2000/svg" viewBox="0 0 1080 1080">
  <defs>
    <style>
      .cls-1 {
        fill: #0d0d0d;
      }

      .cls-2 {
        fill: #fff;
      }

      .cls-3 {
        fill: #fdec0f;
      }
    </style>
  </defs>
  <title>deafault-notifications-alert</title>
  <rect class="cls-1" width="1080" height="1080"/>
  <g>
    <g>
      <path class="cls-2" d="M445.24,333.65c-.62-38.63,19.81-62,51.49-61.9,31.39.11,55.07,24.24,52.92,58.45-3.78,60.12-10,120.1-15.19,180.14q-2.64,30.3-5.57,60.58c-.72,7.48-1.37,15-2.82,22.38-3.1,15.65-13.34,25.21-28.87,25-15.72-.23-25.84-10.72-27.82-26.19-3.54-27.57-5.85-55.3-8.38-83C455.56,449.66,450.31,390.2,445.24,333.65Z"/>
      <path class="cls-2" d="M546,728.8c.09,28-22.1,50.34-49.37,49.82-26.52-.51-47.55-22.23-47.69-49.27-.16-27.92,21.83-50,49.3-49.5C525,680.32,546,701.79,546,728.8Z"/>
    </g>
    <circle class="cls-3" cx="619.39" cy="690.44" r="96.04"/>
  </g>
</svg>
