<svg id="Deafult_Theme" data-name="Deafult Theme" xmlns="http://www.w3.org/2000/svg" viewBox="0 0 1080 1080">
  <defs>
    <style>
      .cls-1 {
        fill: #0d0d0d;
      }

      .cls-2 {
        fill: #fff;
      }
    </style>
  </defs>
  <title>deafault-wifi</title>
  <rect class="cls-1" width="1080" height="1080"/>
  <g>
    <path class="cls-2" d="M648.69,353.61c5.35,3.07,10.66,6.2,16,9.19,75.37,41.83,134.39,100.51,179.11,173.89a479.57,479.57,0,0,1,41.72,87.94,13,13,0,0,1,.36,1.29l-60.16,21.25C785.25,538.61,713.88,456.49,608.38,406s-214-54.53-325.75-17.55l-20.5-60.27.36-.77c9.12-2.74,18.22-5.56,27.37-8.21,56.48-16.41,114.11-22,172.69-17.84a466.13,466.13,0,0,1,142.62,33c5.83,2.37,11.73,4.57,17.6,6.85Z"/>
    <path class="cls-2" d="M327.21,510.81l-22.29-63.48C482.86,381,699.42,473.26,766.54,668.05l-63.15,23.26c-28.21-76.22-78-132.95-151-168.09S403.84,485.28,327.21,510.81Z"/>
    <path class="cls-2" d="M586.79,732.72C570,688.22,541.3,655.37,499,634.9s-86-21.83-130.19-7.56l-20.21-57.57c111.31-42.82,252.48,15.17,296.17,143Z"/>
    <path class="cls-2" d="M527.67,753.12,426,788.76c-12.1-33.79-24.3-67.89-36.51-102C438.79,666.57,506.91,692.38,527.67,753.12Z"/>
  </g>
</svg>
