<svg id="Deafult_Theme" data-name="Deafult Theme" xmlns="http://www.w3.org/2000/svg" viewBox="0 0 1176.69 1080">
  <defs>
    <style>
      .cls-1 {
        fill: #0d0d0d;
      }

      .cls-2 {
        fill: #fff;
      }

      .cls-3 {
        fill: #c4c4c4;
      }
    </style>
  </defs>
  <title>deafault-filemanager</title>
  <rect class="cls-1" width="1080" height="1080"/>
  <g>
    <path class="cls-2" d="M152.2,795.25c.52-4.74,1.5-9.47,1.51-14.21q.1-229.41.07-458.82c0-60.36,36.89-97.2,97.3-97.23,50.85,0,101.7.44,152.53-.3,13.19-.19,22.92,4,30.77,13.73,12.25,15.13,24.23,30.48,36.33,45.74,2.94,4.35,5.79,8.77,8.85,13,11.57,16.19,25.82,23.72,47.24,23.45,99.93-1.21,199.89-.33,299.84-.71,19.82-.08,38.86,1.9,56.92,10.39L900,340.43c15.78,18.18,28.21,38,30.25,62.77q.09,47.61.2,95.23v12.13c-.17,4.86-.5,9.72-.5,14.58,0,81.23.27,162.46-.2,243.69-.11,17.26-3,34.5-4.54,51.75-12.62,35.68-39.5,53.73-75.23,60.83l-3-1.92c-2.83-.12-5.67-.35-8.5-.35q-228.31-.06-456.63-.06c-3.64,0-7.28.29-10.92.45l-129.31,0-26.2-3.67,0,.17-4.77-2.46c-32.34-15.23-52.4-39.64-56.83-75.81-.11-.89-1.36-1.63-2.07-2.45Zm246-504.73.1.13c-3.75-1.52-7.5-4.33-11.26-4.35q-71.7-.45-143.42,0c-4.89,0-9.76,2.74-14.63,4.21l.22-.14c-10.56,5.45-14.37,14.47-14.36,25.94q.09,235.7,0,471.38c0,10.61,3.5,18.9,12.26,24.9l12.3,5c3.24.15,6.48.44,9.73.44q292.8,0,585.6,0c3.25,0,6.49-.29,9.73-.44l13.15-6-.33.2,3-2.87-.08.35c2.9-7.6,8.24-15.17,8.33-22.8.71-57.65.39-115.32.39-173q0-101.1,0-202.21c0-11.22-2.49-20.92-14.54-25.14l-2.62-2a1.26,1.26,0,0,0-1.38-.86l-47.31-1.68H602.92l-70.68.09H509.4c-35.41-4-61.2-23-81-51.59-6.9-9.92-14.6-19.28-21.93-28.9Z"/>
    <path class="cls-3" d="M830.33,283.42c20.32,0,37.09,7.3,51.11,21.62q1.06,12.65,2.12,25.29c-18.06-8.49-37.1-10.47-56.92-10.39-99.95.38-199.91-.5-299.84.71-21.42.27-35.67-7.26-47.24-23.45-3.06-4.27-5.91-8.69-8.85-13,4.86-.22,9.73-.63,14.6-.63"/>
    <path class="cls-3" d="M892.2,315.37,900,340.43l-16.47-10.1q-1.06-12.65-2.12-25.29Z"/>
    <path class="cls-2" d="M237.05,870.13l6.9,3.55Z"/>
    <path class="cls-2" d="M850.38,383.29l-47.31-1.68Z"/>
    <path class="cls-2" d="M766.5,381.61h0Z"/>
    <path class="cls-2" d="M406.42,301.22l-8.22-10.69Z"/>
    <path class="cls-2" d="M1172.33,780.69l4.36-4.14C1175.24,777.92,1173.78,779.3,1172.33,780.69Z"/>
    <path class="cls-2" d="M1157.51,881.71c0-1,0-2.05.07-3.08l4.3,2.78Z"/>
  </g>
</svg>
