<svg id="Light_Theme" data-name="Light Theme" xmlns="http://www.w3.org/2000/svg" viewBox="0 0 637.31 683.23">
  <defs>
    <style>
      .cls-1 {
        fill: #0d0d0d;
      }
    </style>
  </defs>
  <title>light-power</title>
  <g>
    <path class="cls-1" d="M560.73,863.38C409,862.82,276.53,755.71,248.57,607c-21.77-115.76,11.77-215.41,96.79-297.21,19.37-18.64,43.72-19.9,62.89-4.65,21.59,17.18,22.56,50.66,1.94,69.2-39.95,35.9-65.1,80.29-73.57,133.23-10.9,68.22,6.1,129.58,50.26,182.71,36.7,44.15,84.11,70.79,140.88,78.94,121.93,17.51,230.1-62.46,254.36-174.87,18.53-85.86-6.63-159.12-70-219.45-25.85-24.6-18.26-65.66,14.72-77.24,18.2-6.4,34.36-1.9,48.44,11,38.46,35.4,66.91,77.55,84.87,126.62,44.18,120.69,11,256.87-83.91,343.61-51.28,46.84-111.54,74.56-180.82,82C583.88,862.13,572.28,862.58,560.73,863.38Z" transform="translate(-242.11 -180.15)"/>
    <path class="cls-1" d="M606.26,339.82c0,38.36.18,76.73-.09,115.1-.14,20.66-14.81,38.38-34.7,43.08s-41.41-4.41-50.56-22.62a50.62,50.62,0,0,1-5.51-21.59c-.39-76-.28-152.06-.22-228.08,0-25,21-45.78,45.78-45.56,24.58.22,45,20,45.22,44.56C606.5,263.08,606.27,301.45,606.26,339.82Z" transform="translate(-242.11 -180.15)"/>
  </g>
</svg>
