<svg id="Light_Theme" data-name="Light Theme" xmlns="http://www.w3.org/2000/svg" viewBox="0 0 270.2 514.72">
  <defs>
    <style>
      .cls-1 {
        fill: #fdec0f;
      }
    </style>
  </defs>
  <title>light-notifications-alert</title>
  <g>
    <g>
      <path d="M451.81,311c-.63-38.62,19.81-62,51.49-61.89,31.38.11,55.07,24.23,52.92,58.44-3.78,60.13-10,120.11-15.2,180.15q-2.64,30.3-5.57,60.58c-.72,7.48-1.36,15-2.82,22.37-3.1,15.66-13.33,25.21-28.87,25-15.72-.23-25.84-10.73-27.82-26.19-3.53-27.57-5.84-55.3-8.38-83C462.13,427,456.87,367.54,451.81,311Z" transform="translate(-451.79 -249.09)"/>
      <path d="M552.6,706.14c.09,28-22.09,50.34-49.36,49.82-26.52-.52-47.55-22.24-47.7-49.28-.15-27.92,21.83-50,49.3-49.5C531.57,657.66,552.52,679.13,552.6,706.14Z" transform="translate(-451.79 -249.09)"/>
    </g>
    <circle class="cls-1" cx="174.16" cy="418.69" r="96.04"/>
  </g>
</svg>
