<svg id="Light_Theme" data-name="Light Theme" xmlns="http://www.w3.org/2000/svg" viewBox="0 0 673.01 441.88">
  <title>light-home</title>
  <g>
    <path d="M582.29,546s-2.36,16.74-12.45,26.1a22.12,22.12,0,0,1-14,6.15c-6.34.41-11.26-2.39-15-6.49C532.2,562.35,529.67,546,529.67,546Z" transform="translate(-219.48 -290.81)"/>
    <g>
      <path d="M514.83,334.78c-.83.13-1.66.28-2.48.43q-7.5,1.35-14.81,3.19A227.12,227.12,0,0,0,470.48,347l-.34.13c-1.61.6-3.24,1.26-4.88,2a149.3,149.3,0,0,0-31.15,18.58c-14.78,11.32-26.36,24.06-33.39,35.78-1.78,2.42-.78,2.2-1.78,2.42-23.94,32.6-39.85,70.67-41.37,113.85-.05,1.37-.08,2.74-.1,4.12,0,1.11,0,2.23,0,3.34q0,6.68.42,13.25a41.88,41.88,0,0,1-14.31,23.49c0,.13-.06.26-.1.39-1.49,1.17-3,2.42-4.49,3.78s-3.09,2.86-4.64,4.43l0,0c-3.09,2.71-6.32,5.64-9.64,8.77s-6.48,6.18-9.8,9.5c-6.84,6.84-13.09,13.51-18.44,19.63-1.46,1.4-2.91,2.79-4.35,4.19-51.67,50.08-82.39,99-69.74,112.88,6.3,6.93,22.28,4,43.51-6.56-.05.25-.09.49-.13.73h0c11.28-5.78,23.42-12.18,35.79-18.82l8.28-4.45c6.92-3.74,13.86-7.53,20.73-11.3l4.86-2.66,9.19-5.07,9-5c7.9-4.39,15.51-8.65,22.67-12.66l5.44-3.06.43-.25c.4-.22.8-.44,1.19-.67l.87-.49.87-.49,2.43-1.37.88-.5,2.33-1.31,4.51-2.55,2.18-1.24c4.56-2.58,8.74-5,12.44-7.07l1.84-1.05,5.65-3.23,2.1-1.2q-3.81-8.19-7.38-16.76-3.42-8.24-6.42-16.41c-3.65-9.92-6.84-19.73-9.58-29.36-3.28-11.54-5.9-22.8-7.86-33.65-.21-1.13-.4-2.26-.6-3.39-.08-.51-.17-1-.25-1.52-.11-.67-.22-1.33-.32-2-.08-.46-.15-.93-.22-1.39l-.33-2.2c-.06-.39-.11-.78-.17-1.17s-.09-.66-.13-1a2.05,2.05,0,0,0-.06-.39l-.21-1.52c-.32-5.19,1.54-17.42,1.54-17.42l-.16.12c.52-2.07,1-4.21,1.41-6.42.13-.67.24-1.33.35-2h0c.17-.12,2.74-8.78,2.9-9.33h0c.06-.14.13-.29.19-.44q.8-1.8,1.62-3.57l.17-.36c.57-1.22,1.17-2.42,1.77-3.62l.37-.74c.59-1.15,1.19-2.28,1.8-3.4l.42-.77c.62-1.13,1.26-2.25,1.9-3.35l.33-.55c.62-1,1.25-2.07,1.89-3.08l.3-.49c.68-1.07,1.38-2.12,2.08-3.15.16-.25.33-.49.49-.73.69-1,1.4-2,2.11-3,.17-.24.35-.47.52-.7.74-1,1.48-2,2.25-3l.33-.41c.73-.91,1.47-1.81,2.21-2.7l.42-.5c.79-.92,1.59-1.83,2.41-2.72l.57-.63c.81-.88,1.63-1.75,2.47-2.59l.55-.56c.87-.87,1.75-1.74,2.65-2.58l.25-.23c.87-.81,1.75-1.6,2.64-2.38l.48-.42c.91-.79,1.84-1.56,2.78-2.32l.6-.48c.94-.75,1.9-1.49,2.87-2.2l.51-.37c1-.75,2.07-1.49,3.12-2.21h0a103.24,103.24,0,0,1,10.3-6.14l2.3-1.15a100.5,100.5,0,0,1,11.47-4.77h0c2.77-1,5.58-1.81,8.43-2.54h0c.8-.12,1.6-.23,2.4-.32a107,107,0,0,1,31.91.92,128.45,128.45,0,0,1,41.22,15.35q4.77,2.72,9.46,5.86A153.72,153.72,0,0,1,566.8,436a125.19,125.19,0,0,1,38.25-13,108,108,0,0,1,20.24-1.35h0c3.26.09,6.53.33,9.8.74a104.86,104.86,0,0,1,12.42,2.27,106.55,106.55,0,0,1,12.55,3.91h0q2.08,1,4.13,2a97.34,97.34,0,0,1,21.19,14.88,104.84,104.84,0,0,1,9.51,10c13.92,16.63,23.78,38.31,29.57,63.68-.25,4-.61,8-1.11,12.22-.39,3.32-.87,6.71-1.42,10.15-1,6-2.15,12.1-3.59,18.38v0c-.61,2.68-1.27,5.4-2,8.13a366.17,366.17,0,0,1-11.28,35.92c-3.88,10.51-8.34,21.2-13.35,32L693.6,637c4.5,2.76,10,6.14,16.41,10l-.34.45c.27,0,.54-.11.81-.17l4.8,2.89,7.45,4.46,1.53.91,3.67,2.18,2.77,1.65,2.83,1.66q2.44,1.46,5,2.92l5.09,3L754.08,673l5.06,2.9,5.12,2.92q5.15,2.92,10.36,5.84,3.79,2.12,7.6,4.22l1.52.84c5,2.74,10,5.44,14.88,8.08,1.24.67,2.49,1.33,3.73,2,10.57,5.6,20.88,10.85,30.48,15.42h0a195.08,195.08,0,0,0,23.08,11.63c16.32,6.76,28.44,7.92,33.73,2.1,13.41-14.75-22-68.9-79.44-122.07-1.23-1.15-2.48-2.29-3.75-3.44-1.47-1.34-3-2.68-4.43-4a226.28,226.28,0,0,0-19.51-22.12h0q-3.74-3.78-7.81-7.67c-1-.93-1.94-1.84-2.91-2.74-.37-.63-.8-1.28-1.29-2a46.29,46.29,0,0,0-3.59-4.41c-.81-.87-1.67-1.76-2.58-2.64s-1.78-1.67-2.65-2.42a41.71,41.71,0,0,1-4.84-7q-2.24-6.83-4.73-13.38c-.53-1.39-1.06-2.77-1.61-4.15h0c.09-2.51.13-5,.13-7.55a207.29,207.29,0,0,0-48.81-134q-5.55-6.63-11.66-12.76a228.51,228.51,0,0,0-80.85-38.28c-4-1-8-1.88-12-2.67h0c-1.75-.34-3.53-.66-5.3-1" transform="translate(-219.48 -290.81)"/>
      <path d="M593.4,336.78c.35-17,9-34.64,24.66-44a59.24,59.24,0,0,0-26.76,0A57.47,57.47,0,0,0,556,316.62c-10.6-19.38-34.94-29.95-59.76-24.29l-1.19.29a46.36,46.36,0,0,1,21.07,29c1.21,5.29-2.17,10.19-2.86,15.35" transform="translate(-219.48 -290.81)"/>
    </g>
  </g>
</svg>
