<svg id="Light_Theme" data-name="Light Theme" xmlns="http://www.w3.org/2000/svg" viewBox="0 0 545.72 545.69">
  <defs>
    <style>
      .cls-1 {
        fill: #0d0d0d;
      }
    </style>
  </defs>
  <title>light-search</title>
  <path class="cls-1" d="M809.24,491.05c-16,85.3-89,149.06-175.72,153.39-43.26,2.16-82.73-9.67-118.13-34.67-3.74-2.64-5.88-2.58-9.13.71-23.74,24-47.68,47.83-71.56,71.71q-61.14,61.14-122.31,122.26c-8.68,8.66-19,10.62-29.21,5.88a27.34,27.34,0,0,1-15.95-26.9c.56-7.12,4.49-12.39,9.34-17.24q96.35-96.29,192.71-192.56c3.18-3.17,3.55-5.25.85-9.11-28.95-41.38-40.34-87.19-32.71-137.16C453,325.3,547.52,255,650,268.9c92.32,12.49,162.84,93.36,162.91,192.6C812.14,467.55,811.42,479.44,809.24,491.05ZM765.6,455.71C765.53,377,702.32,314.1,623.43,314.25c-78.5.14-141.13,63.24-141,142S545.3,597.5,624.23,597.38A140.92,140.92,0,0,0,765.6,455.71Z" transform="translate(-267.14 -267.15)"/>
</svg>
