<svg id="Light_Theme" data-name="Light Theme" xmlns="http://www.w3.org/2000/svg" viewBox="0 0 623.8 488.73">
  <title>light-wifi</title>
  <g>
    <path d="M655.25,331c5.35,3.06,10.67,6.19,16.06,9.18C746.67,382,805.7,440.65,850.41,514A479.22,479.22,0,0,1,892.14,602c.18.52.29,1.08.35,1.3L832.34,624.5C791.81,516,720.44,433.83,614.94,383.34S401,328.81,289.2,365.8q-10.27-30.17-20.51-60.28l.37-.76c9.12-2.74,18.22-5.56,27.36-8.22,56.48-16.4,114.11-22,172.7-17.83a465.85,465.85,0,0,1,142.61,33c5.84,2.37,11.74,4.57,17.61,6.85Z" transform="translate(-268.69 -277.37)"/>
    <path d="M333.78,488.15l-22.3-63.48C489.43,358.34,706,450.6,773.1,645.38L710,668.65c-28.22-76.22-78-132.95-151-168.1S410.4,462.62,333.78,488.15Z" transform="translate(-268.69 -277.37)"/>
    <path d="M593.36,710.05c-16.81-44.5-45.49-77.35-87.82-97.81s-86-21.83-130.2-7.56c-6.8-19.4-13.5-38.48-20.2-57.58,111.3-42.82,252.48,15.18,296.16,143Z" transform="translate(-268.69 -277.37)"/>
    <path d="M534.24,730.45,432.58,766.1l-36.52-102C445.35,643.91,513.47,669.71,534.24,730.45Z" transform="translate(-268.69 -277.37)"/>
  </g>
</svg>
