<svg id="Light_Theme" data-name="Light Theme" xmlns="http://www.w3.org/2000/svg" viewBox="0 0 582.19 581.99">
  <defs>
    <style>
      .cls-1 {
        fill: #0d0d0d;
      }
    </style>
  </defs>
  <title>light-config</title>
  <path class="cls-1" d="M422.2,333.36c-1.47-18.58-2.81-35.72-4.19-52.85-.44-5.42,1-7.95,6.27-9.74q24-8.24,48.14-16.29c4.9-1.64,7.41-.68,10.41,3.62q15.41,22.17,30.77,44.35c2.73,4,6.14,6.08,11.14,5.66a146.58,146.58,0,0,1,15-.57c3.79.06,6.17-1.65,7.83-4.74q12.86-23.91,25.64-47.86c3.11-5.84,5.23-6.85,11.8-5.26,16.47,4,32.95,7.91,49.41,11.94,5.23,1.29,6.78,3.4,7,8.86.7,18.11,1.45,36.21,2,54.32.14,4.4,1.92,7.51,5.73,9.6s7.37,4,10.9,6.19c4.08,2.57,8,2.49,12.13.17q23.55-13.15,47.2-26.14c4.84-2.67,7.55-2.1,11.43,1.88q18.23,18.72,36.51,37.38c3.06,3.13,3.48,6.24,1.22,10.05-8.94,15.07-17.79,30.2-26.9,45.17-3,5-3.52,9.61-.44,14.66,2.1,3.47,3.81,7.17,5.85,10.69a11.4,11.4,0,0,0,9.79,6.2c17.85,1,35.7,2.26,53.54,3.45,6.43.43,8.34,2.16,9.68,8.34q5.34,24.66,10.74,49.32c.93,4.27-.2,7.18-4.22,9.24-10.74,5.5-21.56,10.87-32.35,16.3-5.7,2.87-11.42,5.71-17.11,8.62a9.23,9.23,0,0,0-5.41,8c-.42,6.26-.85,12.51-1.18,18.78A10,10,0,0,0,775,571.6q14.26,10.54,28.57,21.07c5.32,3.93,10.7,7.78,16,11.78,4.17,3.16,4.83,5.89,3,11q-8.41,23.22-16.82,46.45c-1.71,4.74-4.46,6.38-9.71,5.81-17.43-1.88-34.87-3.72-52.29-5.71-4.77-.54-8.29.9-11.05,4.9-3.62,5.25-7.49,10.34-11.34,15.42a11.89,11.89,0,0,0-1.79,12.39c6.48,16.77,12.79,33.61,19.22,50.4,1.87,4.88,1.34,7.53-2.71,10.65Q717,770.39,697.9,785c-4.18,3.17-7.06,3.21-11.33-.19-11-8.74-21.87-17.64-32.8-26.47-3.07-2.48-6.12-5-9.25-7.39a8.82,8.82,0,0,0-8.83-1.61c-8.6,3.19-17.22,6.31-25.74,9.68-3.45,1.37-5.28,4.3-6,8q-5.37,26.26-10.87,52.51c-1.21,5.76-3,7.56-8.82,8q-22.9,1.92-45.83,3.46c-5.22.34-7.58-1.56-9.28-6.63q-8.45-25.26-16.75-50.56a10.4,10.4,0,0,0-7.95-7.46c-9.05-2.07-18.12-4-27.19-6a10.21,10.21,0,0,0-10.09,3.18Q448.63,782.43,430,801.21c-5,5-6.6,5.07-12.78,1.59l-39.14-22c-3.64-2-5-4.93-3.94-9,4.4-17.44,8.76-34.89,13.32-52.29,1.22-4.64.37-8.42-2.91-11.81-6.39-6.58-12.72-13.21-19.1-19.8a9.92,9.92,0,0,0-9.88-2.86l-52,11.72c-5.81,1.31-8,.31-10.7-4.86q-10.29-20-20.59-39.9c-2.79-5.4-2.51-7.83,1.93-12,12.8-12,25.59-24,38.52-35.79,3.92-3.59,5.3-7.53,4.14-12.77-1.56-7-2.89-14.11-3.86-21.23-.86-6.27-4-9.76-10-11.85-17.11-5.9-34-12.36-51.05-18.48-2.38-.85-3.23-2.08-3-4.55,1.29-12.94,2.45-25.88,3.74-38.82.4-4,1-8.06,1.6-12.08.74-5.09,2.66-7.15,7.62-8.05,10.85-2,21.72-3.85,32.57-5.8,7.2-1.3,14.36-2.74,21.57-4a10.38,10.38,0,0,0,8.26-6.64c3-6.94,5.87-13.9,8.75-20.88a9.37,9.37,0,0,0-1.21-9.85q-16.5-21.79-33-43.62c-2.64-3.5-2.78-6.49-.12-9.85q15.83-19.91,31.82-39.67c2.64-3.27,5.91-3.9,10-2.2q24.94,10.27,49.84,20.66c4.81,2,9.12,1.83,13.37-1.46A129.06,129.06,0,0,1,415.58,345C420.61,341.91,423.16,337.89,422.2,333.36ZM540,369c-96,.2-174.28,80.3-169.72,179,4.11,89.1,79.34,164.85,175.83,162,90.68-2.71,168.32-79.28,164.48-177.51C707,442.05,632.41,368.77,540,369Z" transform="translate(-248.9 -249)"/>
</svg>
