<svg id="Light_Theme" data-name="Light Theme" xmlns="http://www.w3.org/2000/svg" viewBox="0 0 400.37 183.42">
  <title>light-battery</title>
  <g>
    <path d="M726,502c13.54-1.7,14.44,5.63,14.12,15.11-.54,15.85-.56,31.75,0,47.6.34,9.36-1,16-14.17,14.31,0,7.75.09,14.72,0,21.68-.3,19.32-11.72,30.65-31.3,30.93-11.9.17-23.8,0-35.69,0l-284.33,0c-23.87,0-34.75-10.84-34.78-34.85q-.08-58.33,0-116.66c.05-20.47,11.12-31.82,31.29-31.83q161.79-.1,323.59,0c20.45,0,31,10.95,31.24,31.78C726.06,486.83,726,493.55,726,502ZM364.6,605.08H698.72V475H364.6Z" transform="translate(-339.82 -448.29)"/>
    <path d="M443.81,482.72c17.47,0,33.69-.29,49.88.3,2.55.09,7.08,4.16,7.11,6.43.45,34.43.31,68.88.31,104.18h-57.3Z" transform="translate(-339.82 -448.29)"/>
    <path d="M376.22,483.34h56V593.7h-56Z" transform="translate(-339.82 -448.29)"/>
    <path d="M567.63,593.9H512V483.36h55.61Z" transform="translate(-339.82 -448.29)"/>
  </g>
</svg>
