<svg id="Light_Theme" data-name="Light Theme" xmlns="http://www.w3.org/2000/svg" viewBox="0 0 578.96 648.03">
  <defs>
    <style>
      .cls-1 {
        fill: #fff;
      }

      .cls-2 {
        fill: none;
        stroke: #000;
        stroke-miterlimit: 10;
        stroke-width: 15px;
      }
    </style>
  </defs>
  <title>light-fulltrash</title>
  <g>
    <g>
      <path d="M473.89,171.29c16.29,7.75,32.35,16.08,49,22.88,4.54,1.85,11.52.4,16.4-1.75,24.2-10.68,48.52-19.54,75.58-12.65,2.7.68,5.38,1.45,8,2.39,26.23,9.49,27.82,13.07,17.54,38.71C628.69,250.19,617,279.54,605.64,308,708.38,369.58,746.93,466,754.7,578c3.15,45.45-7.32,88.53-46.34,118.78-23.93,18.55-52.22,26.75-81.57,30.27-58.15,7-116.47,8-174-4.86C382.25,706.39,347,659,349.21,582.32c2.34-82.82,29.43-157,83.22-220.49,11.94-14.1,26.64-25.89,37.83-36.6C458,292.64,445.54,260.66,434,228.36c-2.6-7.26-2.31-15.6-3.08-23.47-1.47-15,5.95-25.52,17.77-33.6Zm53.72,173.34-3-3c-13.16,8.16-28,14.48-39.19,24.8-68.24,63-98.29,142.69-94.72,234.34,1.87,48.07,26.82,73.77,74.35,82.69a458.71,458.71,0,0,0,70.79,7.2c41,1.22,82.15,1.12,121.78-12.23,31.71-10.68,52-32.46,54.25-65.91,1.81-27.59,1.83-56.16-3.27-83.19-11.56-61.18-37.8-115.84-84.32-159-13.89-12.89-29.55-23.06-47.31-27.53L596,392h-27.9C563,381.14,558,370.7,553.07,360.27l-4.93.38c-4.42,13-10.62,25.78-12.76,39.18-2.22,13.85-.5,28.33-.5,44.1l-22.55,7.57C499.24,412.23,507.68,377.66,527.61,344.63ZM597.18,220l-2.46-3.51C557.48,228.66,521.91,249,477,239.43c13.33,28.32,24.9,52.91,35.87,76.24,15-1.62,27.94-2.67,40.69-4.61,3.43-.52,8.18-3,9.37-5.88C574.71,276.94,585.86,248.45,597.18,220Z" transform="translate(-263.04 -171.29)"/>
      <path class="cls-1" d="M527.61,344.63c-19.93,33-28.37,67.6-15.28,106.87l22.55-7.57c0-15.77-1.72-30.25.5-44.1,2.14-13.4,8.34-26.14,12.76-39.18l4.93-.38C558,370.7,563,381.14,568.14,392H596l-19.1-49.21c17.76,4.47,33.42,14.64,47.31,27.53,46.52,43.16,72.76,97.82,84.32,159,5.1,27,5.08,55.6,3.27,83.19-2.2,33.45-22.54,55.23-54.25,65.91-39.63,13.35-80.77,13.45-121.78,12.23a458.71,458.71,0,0,1-70.79-7.2c-47.53-8.92-72.48-34.62-74.35-82.69-3.57-91.65,26.48-171.31,94.72-234.34,11.17-10.32,26-16.64,39.19-24.8Z" transform="translate(-263.04 -171.29)"/>
      <path class="cls-1" d="M597.18,220c-11.32,28.43-22.47,56.92-34.24,85.16-1.19,2.84-5.94,5.36-9.37,5.88-12.75,1.94-25.65,3-40.69,4.61-11-23.33-22.54-47.92-35.87-76.24,44.9,9.56,80.47-10.77,117.71-22.92Z" transform="translate(-263.04 -171.29)"/>
    </g>
    <g>
      <polygon class="cls-2" points="442.39 640.53 98.66 640.53 8.99 148.07 569.28 148.07 442.39 640.53"/>
      <line class="cls-2" x1="536.7" y1="148.07" x2="98.66" y2="640.53"/>
      <line class="cls-2" x1="531.61" y1="288.19" x2="212.17" y2="640.53"/>
      <line class="cls-2" x1="487.78" y1="464.36" x2="327.4" y2="640.53"/>
      <line class="cls-2" x1="77.33" y1="523.39" x2="414.22" y2="148.07"/>
      <line class="cls-2" x1="57.2" y1="412.82" x2="287.83" y2="148.07"/>
      <line class="cls-2" x1="32.63" y1="285.2" x2="171.08" y2="148.07"/>
    </g>
  </g>
</svg>
