<svg id="Light_Theme" data-name="Light Theme" xmlns="http://www.w3.org/2000/svg" viewBox="0 0 115.62 560.49">
  <title>light-notifications</title>
  <g>
    <path d="M444,280.76c-.69-42.7,21.91-68.56,56.94-68.44,34.7.12,60.89,26.8,58.52,64.63-4.18,66.49-11,132.81-16.81,199.19q-2.91,33.51-6.15,67c-.8,8.27-1.51,16.6-3.12,24.73-3.43,17.32-14.75,27.88-31.92,27.63-17.39-.25-28.58-11.86-30.77-29-3.91-30.48-6.46-61.15-9.26-91.76C455.4,409.05,449.59,343.3,444,280.76Z" transform="translate(-443.97 -212.32)"/>
    <path d="M555.44,717.71c.1,30.91-24.43,55.67-54.59,55.09-29.32-.57-52.57-24.59-52.74-54.49-.17-30.87,24.14-55.28,54.52-54.73C532.18,664.11,555.34,687.85,555.44,717.71Z" transform="translate(-443.97 -212.32)"/>
  </g>
</svg>
