<svg id="Light_Theme" data-name="Light Theme" xmlns="http://www.w3.org/2000/svg" viewBox="0 0 1024.85 657.03">
  <defs>
    <style>
      .cls-1 {
        fill: #0d0d0d;
      }

      .cls-2 {
        fill: #6d6d6d;
      }
    </style>
  </defs>
  <title>light-filemanager</title>
  <g>
    <path class="cls-1" d="M158.77,772.58c.52-4.73,1.5-9.47,1.5-14.2q.12-229.41.07-458.82c0-60.37,36.89-97.2,97.31-97.23,50.84,0,101.69.43,152.53-.3,13.18-.19,22.91,4,30.76,13.73,12.25,15.13,24.24,30.48,36.33,45.74,3,4.35,5.8,8.76,8.85,13C497.7,290.73,512,298.25,533.36,298c99.94-1.22,199.89-.33,299.84-.72,19.82-.07,38.86,1.91,56.92,10.39l16.48,10.11c15.78,18.18,28.2,38,30.24,62.76q.1,47.61.2,95.23l0,12.14c-.18,4.86-.5,9.72-.51,14.58,0,81.23.27,162.46-.2,243.68-.1,17.26-3,34.51-4.54,51.76-12.62,35.68-39.49,53.72-75.22,60.82-1-.63-2-1.28-3-1.92-2.83-.12-5.66-.34-8.5-.34q-228.3-.06-456.62-.06c-3.64,0-7.28.29-10.93.44l-129.3,0-26.2-3.67,0,.17L217.3,851c-32.33-15.23-52.39-39.64-56.83-75.81-.11-.89-1.35-1.64-2.07-2.45Zm246-504.72.11.12c-3.76-1.51-7.5-4.33-11.26-4.35q-71.72-.44-143.42,0c-4.89,0-9.76,2.74-14.64,4.21l.23-.15c-10.56,5.46-14.37,14.47-14.37,25.94q.1,235.7,0,471.39c0,10.61,3.5,18.89,12.25,24.89l12.3,5c3.24.15,6.49.43,9.73.44q292.8,0,585.61,0c3.24,0,6.48-.29,9.73-.44l13.15-6-.33.19,3-2.87-.09.35c2.91-7.59,8.24-15.16,8.33-22.79.71-57.66.39-115.32.39-173q0-101.12,0-202.22c0-11.21-2.49-20.91-14.53-25.13l-2.62-2a1.29,1.29,0,0,0-1.39-.87l-47.31-1.68H609.48l-70.68.09H516c-35.42-4-61.2-23-81.06-51.59-6.89-9.93-14.59-19.29-21.92-28.91Q408.87,273.21,404.76,267.86Z" transform="translate(-158.4 -202.02)"/>
    <path class="cls-2" d="M836.9,260.76c20.32,0,37.08,7.29,51.11,21.62q1.05,12.64,2.11,25.29c-18.06-8.49-37.1-10.47-56.92-10.4-100,.39-199.9-.5-299.84.72-21.41.26-35.66-7.26-47.24-23.45-3.05-4.28-5.9-8.69-8.85-13,4.87-.22,9.73-.63,14.6-.63" transform="translate(-158.4 -202.02)"/>
    <path class="cls-2" d="M898.77,292.71l7.83,25.06-16.48-10.11Q889.07,295,888,282.38Z" transform="translate(-158.4 -202.02)"/>
    <path class="cls-1" d="M243.61,847.47l6.91,3.55Z" transform="translate(-158.4 -202.02)"/>
    <path class="cls-1" d="M856.94,360.62l-47.31-1.68Z" transform="translate(-158.4 -202.02)"/>
    <path class="cls-1" d="M773.06,359h0Z" transform="translate(-158.4 -202.02)"/>
    <path class="cls-1" d="M413,278.55q-4.12-5.34-8.23-10.69Q408.87,273.22,413,278.55Z" transform="translate(-158.4 -202.02)"/>
    <path class="cls-1" d="M1178.89,758q2.19-2.06,4.36-4.14Z" transform="translate(-158.4 -202.02)"/>
    <path class="cls-1" d="M1164.07,859.05c0-1,0-2.06.08-3.09l4.3,2.78Z" transform="translate(-158.4 -202.02)"/>
  </g>
</svg>
